<?xml version="1.0" encoding="UTF-8" standalone="no"?>
<svg
   xmlns:dc="http://purl.org/dc/elements/1.1/"
   xmlns:cc="http://creativecommons.org/ns#"
   xmlns:rdf="http://www.w3.org/1999/02/22-rdf-syntax-ns#"
   xmlns:svg="http://www.w3.org/2000/svg"
   xmlns="http://www.w3.org/2000/svg"
   xmlns:sodipodi="http://sodipodi.sourceforge.net/DTD/sodipodi-0.dtd"
   xmlns:inkscape="http://www.inkscape.org/namespaces/inkscape"
   viewBox="0 0 128 128"
   version="1.1"
   id="svg846"
   sodipodi:docname="c.svg"
   inkscape:version="0.92.4 (5da689c313, 2019-01-14)">
  <metadata
     id="metadata852">
    <rdf:RDF>
      <cc:Work
         rdf:about="">
        <dc:format>image/svg+xml</dc:format>
        <dc:type
           rdf:resource="http://purl.org/dc/dcmitype/StillImage" />
      </cc:Work>
    </rdf:RDF>
  </metadata>
  <defs
     id="defs850" />
  <sodipodi:namedview
     pagecolor="#ffffff"
     bordercolor="#666666"
     borderopacity="1"
     objecttolerance="10"
     gridtolerance="10"
     guidetolerance="10"
     inkscape:pageopacity="0"
     inkscape:pageshadow="2"
     inkscape:window-width="1920"
     inkscape:window-height="1016"
     id="namedview848"
     showgrid="false"
     inkscape:zoom="6.328125"
     inkscape:cx="64.632099"
     inkscape:cy="64"
     inkscape:window-x="0"
     inkscape:window-y="27"
     inkscape:window-maximized="1"
     inkscape:current-layer="svg846" />
  <path
     d="M117.5 33.5l.3-.2c-.6-1.1-1.5-2.1-2.4-2.6l-48.3-27.8c-.8-.5-1.9-.7-3.1-.7-1.2 0-2.3.3-3.1.7l-48 27.9c-1.7 1-2.9 3.5-2.9 5.4v55.7c0 1.1.2 2.3.9 3.4l-.2.1c.5.8 1.2 1.5 1.9 1.9l48.2 27.9c.8.5 1.9.7 3.1.7 1.2 0 2.3-.3 3.1-.7l48-27.9c1.7-1 2.9-3.5 2.9-5.4v-55.8c.1-.8 0-1.7-.4-2.6zm-53.5 55c9.1 0 17.1-5 21.3-12.4l12.9 7.6c-6.8 11.8-19.6 19.8-34.2 19.8-21.8 0-39.5-17.7-39.5-39.5s17.7-39.5 39.5-39.5c14.7 0 27.5 8.1 34.3 20l-13 7.5c-4.2-7.5-12.2-12.5-21.3-12.5-13.5 0-24.5 11-24.5 24.5s11 24.5 24.5 24.5z"
     id="path844"
     fill="#03599C" />
  <path
     style="opacity:1;fill:#ffffff;fill-opacity:0;stroke:#ffffff;stroke-width:0.1580247;stroke-miterlimit:4;stroke-dasharray:none;stroke-dashoffset:0;stroke-opacity:0"
     d="M 58.895802,103.10936 C 52.85264,102.25649 47.263155,100.17028 42.382222,96.945876 36.493995,93.056035 31.760489,87.673012 28.630751,81.307473 c -1.916684,-3.898323 -2.993912,-7.3377 -3.649047,-11.650685 -0.485338,-3.19515 -0.485338,-8.118426 0,-11.313576 0.655363,-4.314485 1.732315,-7.752279 3.651069,-11.654766 2.127019,-4.326072 4.514805,-7.596817 8.024971,-10.992461 5.836255,-5.645841 12.685793,-9.136378 20.757111,-10.577865 2.732092,-0.487934 8.524876,-0.609342 11.357491,-0.238036 4.614374,0.604863 8.399575,1.736479 12.404938,3.708557 5.439049,2.677965 10.192937,6.507831 13.783757,11.10458 1.259411,1.612219 3.28985,4.678439 3.174457,4.793832 -0.111869,0.111868 -12.687213,7.345017 -12.767534,7.343693 -0.04512,-7.9e-4 -0.379733,-0.480744 -0.74358,-1.066667 -3.543784,-5.706726 -9.726959,-9.801868 -16.563149,-10.969843 -2.655337,-0.453669 -6.949784,-0.34516 -9.40247,0.237575 -3.094877,0.735314 -5.799416,1.898625 -8.375308,3.602499 -2.020888,1.336753 -5.282655,4.590739 -6.616666,6.600877 -4.931103,7.430373 -5.587904,16.555295 -1.759749,24.448145 2.625512,5.413254 7.395538,9.870801 12.923133,12.076553 3.13953,1.252812 5.713465,1.733942 9.276174,1.733942 6.310675,0 12.166795,-2.327255 16.734981,-6.650575 1.429605,-1.352976 3.577426,-3.977502 4.130822,-5.047651 0.133583,-0.258322 0.316452,-0.469675 0.406376,-0.469675 0.268759,0 12.628386,7.331642 12.628386,7.491069 0,0.249789 -2.27709,3.58128 -3.414072,4.994945 -1.438952,1.789123 -4.062941,4.396328 -5.909385,5.871588 -5.410361,4.322732 -11.390085,7.014122 -18.251852,8.214902 -2.478976,0.43381 -9.098875,0.55486 -11.535803,0.21093 z"
     id="path888"
     inkscape:connector-curvature="0" />
</svg>
