<?xml version="1.0" encoding="UTF-8" standalone="no"?>
<svg
   xmlns:dc="http://purl.org/dc/elements/1.1/"
   xmlns:cc="http://creativecommons.org/ns#"
   xmlns:rdf="http://www.w3.org/1999/02/22-rdf-syntax-ns#"
   xmlns:svg="http://www.w3.org/2000/svg"
   xmlns="http://www.w3.org/2000/svg"
   xmlns:sodipodi="http://sodipodi.sourceforge.net/DTD/sodipodi-0.dtd"
   xmlns:inkscape="http://www.inkscape.org/namespaces/inkscape"
   aria-hidden="true"
   focusable="false"
   data-prefix="fab"
   data-icon="java"
   class="svg-inline--fa fa-java fa-w-12"
   role="img"
   viewBox="0 0 384 512"
   version="1.1"
   id="svg876"
   sodipodi:docname="java-brands.svg"
   inkscape:version="0.92.4 (5da689c313, 2019-01-14)">
  <metadata
     id="metadata882">
    <rdf:RDF>
      <cc:Work
         rdf:about="">
        <dc:format>image/svg+xml</dc:format>
        <dc:type
           rdf:resource="http://purl.org/dc/dcmitype/StillImage" />
      </cc:Work>
    </rdf:RDF>
  </metadata>
  <defs
     id="defs880" />
  <sodipodi:namedview
     pagecolor="#ffffff"
     bordercolor="#666666"
     borderopacity="1"
     objecttolerance="10"
     gridtolerance="10"
     guidetolerance="10"
     inkscape:pageopacity="0"
     inkscape:pageshadow="2"
     inkscape:window-width="1920"
     inkscape:window-height="1016"
     id="namedview878"
     showgrid="false"
     inkscape:zoom="2.6808245"
     inkscape:cx="184.0995"
     inkscape:cy="396.46367"
     inkscape:window-x="0"
     inkscape:window-y="27"
     inkscape:window-maximized="1"
     inkscape:current-layer="svg876" />
  <path
     d="M277.74 312.9c9.8-6.7 23.4-12.5 23.4-12.5s-38.7 7-77.2 10.2c-47.1 3.9-97.7 4.7-123.1 1.3-60.1-8 33-30.1 33-30.1s-36.1-2.4-80.6 19c-52.5 25.4 130 37 224.5 12.1zm-85.4-32.1c-19-42.7-83.1-80.2 0-145.8C296 53.2 242.84 0 242.84 0c21.5 84.5-75.6 110.1-110.7 162.6-23.9 35.9 11.7 74.4 60.2 118.2zm114.6-176.2c.1 0-175.2 43.8-91.5 140.2 24.7 28.4-6.5 54-6.5 54s62.7-32.4 33.9-72.9c-26.9-37.8-47.5-56.6 64.1-121.3zm-6.1 270.5a12.19 12.19 0 0 1-2 2.6c128.3-33.7 81.1-118.9 19.8-97.3a17.33 17.33 0 0 0-8.2 6.3 70.45 70.45 0 0 1 11-3c31-6.5 75.5 41.5-20.6 91.4zM348 437.4s14.5 11.9-15.9 21.2c-57.9 17.5-240.8 22.8-291.6.7-18.3-7.9 16-19 26.8-21.3 11.2-2.4 17.7-2 17.7-2-20.3-14.3-131.3 28.1-56.4 40.2C232.84 509.4 401 461.3 348 437.4zM124.44 396c-78.7 22 47.9 67.4 148.1 24.5a185.89 185.89 0 0 1-28.2-13.8c-44.7 8.5-65.4 9.1-106 4.5-33.5-3.8-13.9-15.2-13.9-15.2zm179.8 97.2c-78.7 14.8-175.8 13.1-233.3 3.6 0-.1 11.8 9.7 72.4 13.6 92.2 5.9 233.8-3.3 237.1-46.9 0 0-6.4 16.5-76.2 29.7zM260.64 353c-59.2 11.4-93.5 11.1-136.8 6.6-33.5-3.5-11.6-19.7-11.6-19.7-86.8 28.8 48.2 61.4 169.5 25.9a60.37 60.37 0 0 1-21.1-12.8z"
     id="path874"
     fill="currentColor"
     style="fill-opacity:1;fill:#000000" />
  <path
     style="opacity:1;fill:#f89820;fill-opacity:1;stroke:#f89820;stroke-width:0.37301958;stroke-miterlimit:4;stroke-dasharray:none;stroke-dashoffset:0;stroke-opacity:1"
     d="m 213.22634,294.75915 c 8.44425,-9.02693 12.96339,-20.98119 11.61583,-30.72679 -0.85922,-6.21394 -3.55357,-12.2556 -7.81672,-17.52777 -1.14248,-1.41288 -3.4201,-4.2214 -5.06139,-6.24116 -6.77652,-8.33913 -12.77996,-18.66424 -15.58812,-26.80946 -2.62886,-7.62516 -3.02829,-10.02163 -3.04645,-18.27796 -0.0132,-6.02367 0.11815,-8.03507 0.68227,-10.44455 2.29922,-9.82033 6.95995,-18.57105 14.62398,-27.45715 14.84851,-17.21618 42.27622,-33.49209 77.55922,-46.02453 6.46802,-2.29743 18.10671,-5.89405 18.33486,-5.6659 0.0776,0.0776 -2.50532,1.70247 -5.73974,3.61091 -27.4951,16.22314 -48.38271,31.18578 -60.62522,43.42829 -10.94965,10.94965 -16.02997,20.10722 -16.57106,29.87027 -0.5544,10.00323 3.02004,18.19312 15.71045,35.99639 7.05923,9.90334 7.97618,11.31284 9.55649,14.68994 8.25318,17.63704 0.78219,36.73273 -21.22865,54.25992 -3.95198,3.14695 -13.65107,9.75727 -14.31651,9.75727 -0.20328,0 0.65656,-1.09698 1.91076,-2.43772 z"
     id="path934"
     inkscape:connector-curvature="0" />
  <path
     style="opacity:1;fill:#f89820;fill-opacity:1;stroke:#f89820;stroke-width:0.37301958;stroke-miterlimit:4;stroke-dasharray:none;stroke-dashoffset:0;stroke-opacity:1"
     d="m 183.37337,272.35206 c -9.66255,-8.89243 -25.01837,-24.27091 -30.5036,-30.5486 -19.66479,-22.50579 -28.00578,-38.87246 -28.00578,-54.95292 0,-5.2986 0.54125,-8.84571 2.02351,-13.2613 2.80114,-8.34443 9.65228,-17.94578 20.52978,-28.77087 8.64179,-8.60016 12.31739,-11.67741 42.42916,-35.52211 32.01858,-25.354662 46.59224,-43.019589 53.01533,-64.260625 2.24605,-7.427649 3.00487,-12.864914 3.01939,-21.635136 0.0128,-7.733916 -0.31624,-11.254264 -1.6865,-18.0439718 -0.40877,-2.0254954 -0.66327,-3.7626738 -0.56555,-3.8603966 0.42876,-0.4287561 4.19559,5.344452 6.38195,9.7812324 2.62722,5.331445 3.8834,8.895703 5.12714,14.547764 0.71248,3.237736 0.81998,4.838229 0.81431,12.123136 -0.006,7.705499 -0.0899,8.785159 -1.02389,13.181523 -5.76084,27.115501 -25.48,53.655854 -61.42902,82.678344 -8.85098,7.1456 -12.57884,10.45343 -18.35751,16.28906 -6.39103,6.45404 -9.55358,10.23429 -13.52758,16.16981 -12.19859,18.21966 -14.09417,34.91336 -6.15654,54.2187 3.18176,7.73848 7.72366,15.43225 16.80573,28.46815 6.96608,9.99875 12.59436,18.43742 14.83394,22.24109 2.43044,4.12779 4.26487,7.74727 4.0403,7.97184 -0.0948,0.0948 -3.58887,-2.97181 -7.76457,-6.81472 z"
     id="path936"
     inkscape:connector-curvature="0" />
  <path
     style="opacity:1;fill:#5382a1;fill-opacity:1;stroke:#5382a1;stroke-width:0.37301958;stroke-miterlimit:4;stroke-dasharray:none;stroke-dashoffset:0;stroke-opacity:1"
     d="m 128.40768,326.29787 c -50.381108,-1.49984 -84.115914,-8.17814 -84.115914,-16.65199 0,-3.68338 3.42805,-6.27685 15.107292,-11.42934 18.241913,-8.04771 36.695987,-13.13189 55.766422,-15.3639 4.94568,-0.57884 17.68926,-1.13529 16.22636,-0.70852 -0.41033,0.1197 -3.7675,1.04067 -7.4604,2.0466 -21.99744,5.99201 -36.341289,11.66394 -41.207565,16.29453 -2.615586,2.48891 -2.899302,3.7152 -1.299443,5.61652 4.990976,5.93144 36.042768,8.99149 80.181988,7.90167 43.47243,-1.07335 77.67518,-3.90535 115.44956,-9.55924 7.42889,-1.11192 11.02365,-1.68215 21.07561,-3.34316 0.61548,-0.1017 -0.72739,0.71014 -2.98416,1.80409 -4.8874,2.36914 -11.73945,6.12596 -15.11845,8.2891 -2.02137,1.29402 -3.38586,1.79022 -8.01992,2.91644 -25.15446,6.11332 -58.32511,10.2251 -95.10884,11.78954 -12.69522,0.53993 -37.01439,0.73936 -48.49254,0.39766 z"
     id="path940"
     inkscape:connector-curvature="0" />
  <path
     style="opacity:1;fill:#5382a1;fill-opacity:1;stroke:#5382a1;stroke-width:0.37301958;stroke-miterlimit:4;stroke-dasharray:none;stroke-dashoffset:0;stroke-opacity:1"
     d="m 300.39363,376.10634 c 0.33036,-0.50419 2.47443,-1.9098 4.7646,-3.12356 15.50947,-8.21985 30.36571,-19.01184 39.0637,-28.37699 13.19407,-14.20608 17.85088,-28.17525 13.5793,-40.73423 -3.15279,-9.26958 -11.52258,-16.78235 -22.07356,-19.81334 -2.44715,-0.703 -3.78755,-0.83192 -8.50056,-0.81759 -5.84263,0.0178 -5.35402,-0.0666 -15.10729,2.60976 -0.81798,0.22446 -0.73265,0.048 0.69461,-1.43617 0.89493,-0.93064 2.4302,-2.12915 3.41169,-2.66334 2.25134,-1.22533 7.70779,-2.90363 12.30656,-3.78526 4.77568,-0.91554 14.19186,-0.93785 18.71895,-0.0444 20.23186,3.99309 33.58722,19.13531 32.62855,36.99403 -0.58035,10.81104 -5.56645,20.47842 -15.5922,30.23119 -13.05451,12.69905 -31.47285,22.31325 -57.89258,30.21935 -6.58377,1.97019 -6.82717,2.00022 -6.00177,0.7405 z"
     id="path942"
     inkscape:connector-curvature="0" />
  <path
     style="opacity:1;fill:#5382a1;fill-opacity:1;stroke:#5382a1;stroke-width:0.37301958;stroke-miterlimit:4;stroke-dasharray:none;stroke-dashoffset:0;stroke-opacity:1"
     d="m 153.77301,380.72672 c -34.86773,-1.7862 -61.597975,-8.86794 -67.577468,-17.90357 -1.231416,-1.86079 -1.574057,-4.81021 -0.778377,-6.7002 0.809068,-1.92179 3.723372,-4.9641 6.549756,-6.83746 4.203687,-2.78624 13.997759,-7.34586 17.827019,-8.29936 1.01501,-0.25274 0.95346,-0.13046 -0.99655,1.97988 -2.35975,2.55378 -3.35969,4.40817 -3.61938,6.7122 -0.48509,4.3037 3.51732,7.29332 12.10439,9.0414 5.33166,1.08537 19.8195,2.46676 35.55806,3.39041 8.45582,0.49624 31.90659,0.48739 40.28042,-0.0152 19.03486,-1.14247 41.12185,-3.96276 62.48647,-7.9789 l 4.84926,-0.91157 1.11906,0.91965 c 5.89417,4.84387 11.21063,8.19771 16.32047,10.29565 1.59048,0.653 2.76549,1.30291 2.61114,1.44424 -0.80679,0.73875 -21.93047,5.84706 -32.91985,7.96096 -30.27289,5.82325 -64.99892,8.37803 -93.81442,6.90188 z"
     id="path944"
     inkscape:connector-curvature="0" />
  <path
     style="opacity:1;fill:#5382a1;fill-opacity:1;stroke:#5382a1;stroke-width:0.37301958;stroke-miterlimit:4;stroke-dasharray:none;stroke-dashoffset:0;stroke-opacity:1"
     d="m 169.25332,437.78956 c -42.50283,-2.18402 -74.989304,-15.75342 -68.34713,-28.54817 1.17472,-2.26284 4.94708,-5.47262 8.72509,-7.42388 3.20194,-1.65374 9.75793,-4.27009 12.06205,-4.81369 1.11406,-0.26284 1.11176,-0.25683 -0.516,1.34796 -5.45934,5.38229 -2.02828,9.55472 9.749,11.85552 7.34988,1.43587 25.01241,3.12427 39.44605,3.77074 20.26855,0.9078 42.62979,-1.12763 70.0416,-6.37552 l 3.83062,-0.73336 3.60368,2.08049 c 5.03127,2.90468 12.79999,6.73959 18.8692,9.31449 5.99199,2.54213 6.13067,2.08953 -1.52782,4.98647 -29.40623,11.12336 -63.08361,16.2271 -95.93634,14.53895 z"
     id="path946"
     inkscape:connector-curvature="0" />
  <path
     style="opacity:1;fill:#5382a1;fill-opacity:1;stroke:#5382a1;stroke-width:0.37301958;stroke-miterlimit:4;stroke-dasharray:none;stroke-dashoffset:0;stroke-opacity:1"
     d="M 145.38007,487.02606 C 107.94592,486.02974 67.176401,482.23904 31.311385,476.42009 15.784816,473.90097 7.8068328,471.01744 4.5500631,466.7476 2.9705755,464.67678 2.848216,461.9958 4.2183028,459.4785 8.157391,452.2411 23.934114,443.58114 43.312925,438.01919 c 17.193849,-4.93485 33.325722,-6.11105 39.60827,-2.88791 l 1.38381,0.70994 -4.433051,0.22803 c -13.725583,0.70604 -35.337905,7.75371 -42.006543,13.69813 -4.711403,4.19974 -3.498166,7.19863 4.188237,10.35254 14.164251,5.81192 41.001633,10.22537 75.349952,12.39142 29.78104,1.87804 71.90468,1.94711 106.49709,0.17462 52.14707,-2.67197 95.5298,-8.71565 113.74644,-15.84609 9.13561,-3.5759 14.01276,-8.08099 14.01276,-12.94377 0,-0.61406 -0.47761,-2.06335 -1.06136,-3.22064 -0.58376,-1.1573 -0.99672,-2.10418 -0.91769,-2.10418 0.57008,0 3.21788,1.68554 4.69904,2.99131 12.43668,10.96403 -12.40453,25.06983 -61.38119,34.85464 -41.52578,8.29623 -93.68052,12.04441 -147.61862,10.60883 z"
     id="path948"
     inkscape:connector-curvature="0" />
  <path
     style="opacity:1;fill:#5382a1;fill-opacity:1;stroke:#5382a1;stroke-width:0.37301958;stroke-miterlimit:4;stroke-dasharray:none;stroke-dashoffset:0;stroke-opacity:1"
     d="m 163.84454,511.27263 c -29.71973,-1.1248 -55.08915,-3.8076 -72.365798,-7.65266 -6.273819,-1.39628 -14.711996,-4.00175 -17.187564,-5.30702 -1.333752,-0.70323 -1.378596,-0.77306 -0.50612,-0.78809 0.526513,-0.009 1.869383,0.14844 2.984157,0.35001 3.166888,0.57263 16.188229,2.15834 24.408035,2.97235 48.34042,4.78718 106.1396,4.50972 156.2952,-0.75026 37.9464,-3.97956 72.94195,-11.11228 95.27835,-19.41943 6.42959,-2.39124 15.50603,-6.75896 19.62514,-9.44394 1.75352,-1.143 4.20351,-3.06552 5.44441,-4.27226 l 2.25619,-2.19408 -0.24873,1.32582 c -1.81424,9.67075 -12.85812,19.20341 -30.03301,25.92338 -27.29695,10.68039 -69.09931,17.17029 -124.21552,19.28471 -11.27712,0.43263 -50.02302,0.41472 -61.73474,-0.0285 z"
     id="path950"
     inkscape:connector-curvature="0" />
</svg>
