<?xml version="1.0" encoding="UTF-8" standalone="no"?>
<svg
   xmlns:dc="http://purl.org/dc/elements/1.1/"
   xmlns:cc="http://creativecommons.org/ns#"
   xmlns:rdf="http://www.w3.org/1999/02/22-rdf-syntax-ns#"
   xmlns:svg="http://www.w3.org/2000/svg"
   xmlns="http://www.w3.org/2000/svg"
   xmlns:sodipodi="http://sodipodi.sourceforge.net/DTD/sodipodi-0.dtd"
   xmlns:inkscape="http://www.inkscape.org/namespaces/inkscape"
   aria-hidden="true"
   focusable="false"
   data-prefix="fab"
   data-icon="js"
   class="svg-inline--fa fa-js fa-w-14"
   role="img"
   viewBox="0 0 448 512"
   version="1.1"
   id="svg1026"
   sodipodi:docname="js-brands.svg"
   inkscape:version="0.92.4 (5da689c313, 2019-01-14)">
  <metadata
     id="metadata1032">
    <rdf:RDF>
      <cc:Work
         rdf:about="">
        <dc:format>image/svg+xml</dc:format>
        <dc:type
           rdf:resource="http://purl.org/dc/dcmitype/StillImage" />
      </cc:Work>
    </rdf:RDF>
  </metadata>
  <defs
     id="defs1030" />
  <sodipodi:namedview
     pagecolor="#ffffff"
     bordercolor="#666666"
     borderopacity="1"
     objecttolerance="10"
     gridtolerance="10"
     guidetolerance="10"
     inkscape:pageopacity="0"
     inkscape:pageshadow="2"
     inkscape:window-width="1920"
     inkscape:window-height="1016"
     id="namedview1028"
     showgrid="false"
     inkscape:zoom="0.4609375"
     inkscape:cx="224"
     inkscape:cy="256"
     inkscape:window-x="0"
     inkscape:window-y="27"
     inkscape:window-maximized="1"
     inkscape:current-layer="svg1026" />
  <path
     fill="currentColor"
     d="M0 32v448h448V32H0zm243.8 349.4c0 43.6-25.6 63.5-62.9 63.5-33.7 0-53.2-17.4-63.2-38.5l34.3-20.7c6.6 11.7 12.6 21.6 27.1 21.6 13.8 0 22.6-5.4 22.6-26.5V237.7h42.1v143.7zm99.6 63.5c-39.1 0-64.4-18.6-76.7-43l34.3-19.8c9 14.7 20.8 25.6 41.5 25.6 17.4 0 28.6-8.7 28.6-20.8 0-14.4-11.4-19.5-30.7-28l-10.5-4.5c-30.4-12.9-50.5-29.2-50.5-63.5 0-31.6 24.1-55.6 61.6-55.6 26.8 0 46 9.3 59.8 33.7L368 290c-7.2-12.9-15-18-27.1-18-12.3 0-20.1 7.8-20.1 18 0 12.6 7.8 17.7 25.9 25.6l10.5 4.5c35.8 15.3 55.9 31 55.9 66.2 0 37.8-29.8 58.6-69.7 58.6z"
     id="path1024" />
  <path
     style="opacity:1;fill:#f0db4f;fill-opacity:1;stroke:#5382a1;stroke-width:2.16949153;stroke-miterlimit:4;stroke-dasharray:none;stroke-dashoffset:0;stroke-opacity:1"
     d="M 0.97627119,256 V 32.542373 H 224.4339 447.89153 V 256 479.45763 H 224.4339 0.97627119 Z M 205.35962,442.30294 c 11.84449,-2.96581 25.66543,-14.55178 31.97277,-26.80247 l 5.54219,-10.76454 0.61531,-84.13069 0.61531,-84.13066 h -21.76785 -21.76786 v 77.12468 c 0,92.62631 0.12728,92.09566 -22.0893,92.09566 -7.01036,0 -10.05574,-1.39095 -15.55138,-7.10296 -3.75864,-3.90665 -7.81017,-8.76436 -9.00339,-10.79494 -1.93661,-3.29567 -4.08362,-2.50472 -20.00196,7.36859 -16.11927,9.99793 -17.60695,11.48197 -15.48496,15.44694 4.42114,8.26098 20.10251,23.64997 28.42663,27.89662 14.45179,7.37276 38.08086,8.90526 58.49449,3.79377 z m 170.93869,-2.49273 c 15.06724,-5.51597 31.09009,-20.87652 34.45477,-33.03055 3.13097,-11.30982 3.08667,-32.00531 -0.0913,-42.6122 -5.29059,-17.6584 -23.37788,-32.22842 -59.11912,-47.62279 -21.1625,-9.11507 -29.48161,-16.37191 -29.48161,-25.71708 0,-9.61905 8.33714,-17.47166 18.54969,-17.47166 9.34164,0 19.09122,5.24399 22.86725,12.29954 1.48833,2.78101 3.39213,5.05639 4.23061,5.05639 0.83851,0 9.0268,-4.89751 18.19622,-10.88338 l 16.6717,-10.88341 -4.37133,-6.13896 c -7.19814,-10.10886 -20.79456,-21.27633 -29.75887,-24.44258 -4.87008,-1.72013 -16.65011,-2.92575 -27.9446,-2.85996 -23.49021,0.13683 -35.74146,5.07591 -48.47592,19.543 -17.53114,19.91643 -18.01808,52.06615 -1.12408,74.21534 7.05667,9.25177 22.35466,18.93263 47.15189,29.83866 23.06737,10.14524 31.73625,17.44762 31.73625,26.73363 0,10.7264 -8.02894,18.05733 -21.15831,19.31891 -18.55406,1.7828 -25.97185,-0.72385 -37.66374,-12.7275 -11.81909,-12.1342 -9.43647,-12.2616 -32.81955,1.7549 -12.32184,7.38608 -12.4224,7.52829 -9.39435,13.28681 3.40089,6.46754 18.88542,21.68496 27.27324,26.80279 19.87102,12.12429 55.55814,14.58732 80.27119,5.5401 z"
     id="path1577"
     inkscape:connector-curvature="0" />
</svg>
